<?xml version="1.0" encoding="UTF-8"?>
<!DOCTYPE svg PUBLIC "-//W3C//DTD SVG 1.1//EN" "http://www.w3.org/Graphics/SVG/1.1/DTD/svg11.dtd">
<svg xmlns="http://www.w3.org/2000/svg" version="1.1" width="96px" height="96px" style="shape-rendering:geometricPrecision; text-rendering:geometricPrecision; image-rendering:optimizeQuality; fill-rule:evenodd; clip-rule:evenodd" xmlns:xlink="http://www.w3.org/1999/xlink">
<g><path style="opacity:0.993" fill="#8fa3ad" d="M 43.5,-0.5 C 46.1667,-0.5 48.8333,-0.5 51.5,-0.5C 54.3891,1.2774 55.7224,3.94407 55.5,7.5C 58.8333,7.5 62.1667,7.5 65.5,7.5C 65.5,9.5 65.5,11.5 65.5,13.5C 65.822,15.7224 65.1554,17.5557 63.5,19C 52.8333,19.6667 42.1667,19.6667 31.5,19C 29.8446,17.5557 29.178,15.7224 29.5,13.5C 29.5,11.5 29.5,9.5 29.5,7.5C 32.8333,7.5 36.1667,7.5 39.5,7.5C 39.2776,3.94407 40.6109,1.2774 43.5,-0.5 Z M 45.5,4.5 C 50.1585,4.01463 51.4919,5.84796 49.5,10C 44.7282,10.8104 43.3948,8.97711 45.5,4.5 Z"/></g>
<g><path style="opacity:0.998" fill="#455a64" d="M 29.5,7.5 C 29.5,9.5 29.5,11.5 29.5,13.5C 26.8806,13.2317 24.3806,13.565 22,14.5C 21.3333,36.5 21.3333,58.5 22,80.5C 30.4245,81.1597 38.9245,81.493 47.5,81.5C 56.0755,81.493 64.5755,81.1597 73,80.5C 73.6667,58.5 73.6667,36.5 73,14.5C 70.6194,13.565 68.1194,13.2317 65.5,13.5C 65.5,11.5 65.5,9.5 65.5,7.5C 68.8499,7.33499 72.1832,7.50166 75.5,8C 77.3333,8.5 78.5,9.66667 79,11.5C 79.6667,35.5 79.6667,59.5 79,83.5C 78.5,85.3333 77.3333,86.5 75.5,87C 56.8333,87.6667 38.1667,87.6667 19.5,87C 17.6667,86.5 16.5,85.3333 16,83.5C 15.3333,59.5 15.3333,35.5 16,11.5C 16.5,9.66667 17.6667,8.5 19.5,8C 22.8168,7.50166 26.1501,7.33499 29.5,7.5 Z"/></g>
<g><path style="opacity:1" fill="#fefefe" d="M 29.5,13.5 C 29.178,15.7224 29.8446,17.5557 31.5,19C 42.1667,19.6667 52.8333,19.6667 63.5,19C 65.1554,17.5557 65.822,15.7224 65.5,13.5C 68.1194,13.2317 70.6194,13.565 73,14.5C 73.6667,36.5 73.6667,58.5 73,80.5C 64.5755,81.1597 56.0755,81.493 47.5,81.5C 38.9245,81.493 30.4245,81.1597 22,80.5C 21.3333,58.5 21.3333,36.5 22,14.5C 24.3806,13.565 26.8806,13.2317 29.5,13.5 Z"/></g>
<g><path style="opacity:1" fill="#51b154" d="M 42.5,33.5 C 58.6784,33.1677 65.1784,40.8344 62,56.5C 56.0392,65.2827 48.2058,67.4493 38.5,63C 28.0827,51.5007 29.4161,41.6674 42.5,33.5 Z"/></g>
<g><path style="opacity:1" fill="#ddf0de" d="M 53.5,43.5 C 56.1662,43.0658 57.3329,44.0658 57,46.5C 53.3333,50.1667 49.6667,53.8333 46,57.5C 43.3167,54.9841 40.8167,52.3174 38.5,49.5C 38.8333,48.5 39.5,47.8333 40.5,47.5C 42.1667,48.8333 43.8333,50.1667 45.5,51.5C 48.5211,49.1456 51.1877,46.4789 53.5,43.5 Z"/></g>
</svg>
