<?xml version="1.0" encoding="UTF-8"?>
<!DOCTYPE svg PUBLIC "-//W3C//DTD SVG 1.1//EN" "http://www.w3.org/Graphics/SVG/1.1/DTD/svg11.dtd">
<svg xmlns="http://www.w3.org/2000/svg" version="1.1" width="96px" height="96px" style="shape-rendering:geometricPrecision; text-rendering:geometricPrecision; image-rendering:optimizeQuality; fill-rule:evenodd; clip-rule:evenodd" xmlns:xlink="http://www.w3.org/1999/xlink">
<g><path style="opacity:0.996" fill="#90a3ad" d="M 43.5,-0.5 C 46.1667,-0.5 48.8333,-0.5 51.5,-0.5C 54.3891,1.2774 55.7224,3.94407 55.5,7.5C 58.8333,7.5 62.1667,7.5 65.5,7.5C 65.5,9.5 65.5,11.5 65.5,13.5C 65.822,15.7224 65.1554,17.5557 63.5,19C 52.8333,19.6667 42.1667,19.6667 31.5,19C 29.8446,17.5557 29.178,15.7224 29.5,13.5C 29.5,11.5 29.5,9.5 29.5,7.5C 32.8333,7.5 36.1667,7.5 39.5,7.5C 39.2776,3.94407 40.6109,1.2774 43.5,-0.5 Z M 45.5,4.5 C 50.1585,4.01463 51.4919,5.84796 49.5,10C 44.7282,10.8104 43.3948,8.97711 45.5,4.5 Z"/></g>
<g><path style="opacity:0.991" fill="#6d4c41" d="M 29.5,7.5 C 29.5,9.5 29.5,11.5 29.5,13.5C 26.8806,13.2317 24.3806,13.565 22,14.5C 21.3333,36.5 21.3333,58.5 22,80.5C 30.4245,81.1597 38.9245,81.493 47.5,81.5C 56.0755,81.493 64.5755,81.1597 73,80.5C 73.6667,58.5 73.6667,36.5 73,14.5C 70.6194,13.565 68.1194,13.2317 65.5,13.5C 65.5,11.5 65.5,9.5 65.5,7.5C 68.8499,7.33499 72.1832,7.50166 75.5,8C 77.3333,8.5 78.5,9.66667 79,11.5C 79.6667,35.5 79.6667,59.5 79,83.5C 78.5,85.3333 77.3333,86.5 75.5,87C 56.8333,87.6667 38.1667,87.6667 19.5,87C 17.6667,86.5 16.5,85.3333 16,83.5C 15.3333,59.5 15.3333,35.5 16,11.5C 16.5,9.66667 17.6667,8.5 19.5,8C 22.8168,7.50166 26.1501,7.33499 29.5,7.5 Z"/></g>
<g><path style="opacity:1" fill="#fefefd" d="M 29.5,13.5 C 29.178,15.7224 29.8446,17.5557 31.5,19C 42.1667,19.6667 52.8333,19.6667 63.5,19C 65.1554,17.5557 65.822,15.7224 65.5,13.5C 68.1194,13.2317 70.6194,13.565 73,14.5C 73.6667,36.5 73.6667,58.5 73,80.5C 64.5755,81.1597 56.0755,81.493 47.5,81.5C 38.9245,81.493 30.4245,81.1597 22,80.5C 21.3333,58.5 21.3333,36.5 22,14.5C 24.3806,13.565 26.8806,13.2317 29.5,13.5 Z"/></g>
<g><path style="opacity:1" fill="#e57d7d" d="M 63.5,43.5 C 61.1667,40.5 58.5,37.8333 55.5,35.5C 56.6955,32.7792 58.6955,31.6126 61.5,32C 64.07,34.0673 66.07,36.5673 67.5,39.5C 66.4787,41.188 65.1454,42.5213 63.5,43.5 Z"/></g>
<g><path style="opacity:1" fill="#b4bfc3" d="M 55.5,35.5 C 58.5,37.8333 61.1667,40.5 63.5,43.5C 62.5,45.1667 61.1667,46.5 59.5,47.5C 56.5,45.1667 53.8333,42.5 51.5,39.5C 52.5,37.8333 53.8333,36.5 55.5,35.5 Z"/></g>
<g><path style="opacity:1" fill="#ff9801" d="M 51.5,39.5 C 53.8333,42.5 56.5,45.1667 59.5,47.5C 53.1667,54.5 46.5,61.1667 39.5,67.5C 36.7673,64.7606 33.7673,62.4273 30.5,60.5C 37.1667,53.1667 44.1667,46.1667 51.5,39.5 Z"/></g>
<g><path style="opacity:1" fill="#fdc01e" d="M 30.5,60.5 C 33.7673,62.4273 36.7673,64.7606 39.5,67.5C 37.5615,69.1628 35.2282,69.8294 32.5,69.5C 31.075,68.078 30.075,66.4113 29.5,64.5C 29.2322,62.901 29.5655,61.5676 30.5,60.5 Z"/></g>
<g><path style="opacity:1" fill="#575d52" d="M 29.5,64.5 C 30.075,66.4113 31.075,68.078 32.5,69.5C 31.2196,70.9313 29.5529,71.5979 27.5,71.5C 27.7215,68.9327 28.3882,66.5994 29.5,64.5 Z"/></g>
</svg>
